<svg style = "display: none;" xmlns="http://www.w3.org/2000/svg" xmlns:xlink="http://www.w3.org/1999/xlink" width="0" height="0">

  <svg id="icon-number" width="60" height="58" viewBox="0 0 60 58" fill="none" xmlns="http://www.w3.org/2000/svg">
    <mask id="mask0_1457_20131" style="mask-type:alpha" maskUnits="userSpaceOnUse" x="0" y="0" width="60" height="58">
    <ellipse cx="30" cy="29" rx="30" ry="29" fill="url(#paint0_linear_1457_20131)"/>
    </mask>
    <g mask="url(#mask0_1457_20131)">
    <ellipse cx="30" cy="29" rx="30" ry="29" fill="url(#paint1_linear_1457_20131)"/>
    <path d="M39.539 37.0481V4.81461C39.539 4.32161 39.554 3.78511 39.584 3.20511C39.644 2.62511 39.704 2.03061 39.764 1.42161L12.224 37.0481H39.539ZM65.0317 37.0481V39.3101C65.0317 39.6291 64.9267 39.8901 64.7167 40.0931C64.5367 40.2671 64.2367 40.3541 63.8167 40.3541H43.319V58.0151H39.539V40.3541H9.43402C8.98402 40.3541 8.63902 40.2671 8.39902 40.0931C8.15902 39.8901 7.99402 39.6291 7.90402 39.3101L7.49902 37.2656L39.494 -3.62439H43.319V37.0481H65.0317Z" fill="white"/>
    </g>
    <defs>
    <linearGradient id="paint0_linear_1457_20131" x1="69" y1="-17.4" x2="19.6538" y2="59.5417" gradientUnits="userSpaceOnUse">
    <stop stop-color="#FF00AA"/>
    <stop offset="1" stop-color="#8912DE"/>
    </linearGradient>
    <linearGradient id="paint1_linear_1457_20131" x1="69" y1="-17.4" x2="19.6538" y2="59.5417" gradientUnits="userSpaceOnUse">
    <stop stop-color="#FF00AA"/>
    <stop offset="1" stop-color="#8912DE"/>
    </linearGradient>
    </defs>
  </svg>

  <symbol fill="none" xmlns="http://www.w3.org/2000/svg" viewBox="0 0 48 49" id="icon-money">
    <path d="M0 44.075C0 37.4 0 30.8 0 24.125C0.3 23.15 1.05 22.625 1.875 22.175C2.175 22.025 2.475 21.875 2.775 21.8C3.15 21.725 3.225 21.5 3.225 21.2C3.225 16.475 3.225 11.825 3.225 7.1C3.225 3.725 5.625 1.25 8.85 1.25C19.95 1.25 31.125 1.25 42.225 1.25C43.8 1.25 44.775 2.225 44.775 3.875C44.775 6.05 44.775 8.225 44.775 10.4C44.775 10.55 44.775 10.775 44.775 10.925C47.025 11.675 48 12.95 48 15.275C48 23 48 30.8 48 38.525C48 38.975 48 39.425 47.85 39.875C47.4 41.675 45.825 42.875 43.8 42.875C37.125 42.875 30.525 42.875 23.85 42.875C23.625 42.875 23.475 42.875 23.25 42.875C23.25 42.95 23.25 42.95 23.25 42.95C23.25 43.025 23.25 43.1 23.25 43.175C23.325 44.3 22.8 45.125 21.825 45.65C21 46.1 20.1 46.475 19.275 46.7C16.875 47.375 14.325 47.6 11.85 47.6C8.925 47.6 6 47.375 3.15 46.4C1.8 46.025 0.525 45.5 0 44.075ZM46.425 22.85C46.425 22.625 46.425 22.475 46.425 22.325C46.425 19.925 46.425 17.525 46.425 15.125C46.425 13.4 45.45 12.425 43.725 12.425C32.175 12.425 20.55 12.425 9 12.425C7.5 12.425 6.15 11.975 5.025 11C4.95 10.925 4.875 10.925 4.8 10.85C4.8 14.3 4.8 17.675 4.8 21.05C4.95 21.05 5.1 21.05 5.25 20.975C9.225 20.15 13.2 20.15 17.25 20.825C18.825 21.05 20.4 21.5 21.825 22.325C22.725 23 23.25 23.75 23.25 24.95C23.175 30.2 23.25 35.375 23.25 40.625C23.25 40.85 23.25 41 23.25 41.225C23.4 41.225 23.55 41.225 23.7 41.225C30.45 41.225 37.125 41.225 43.875 41.225C45.45 41.225 46.5 40.25 46.5 38.6C46.5 36.2 46.5 33.725 46.5 31.325C46.5 31.175 46.5 31.025 46.5 30.875C45.225 30.875 43.95 30.875 42.75 30.875C42.15 30.875 41.55 30.8 40.95 30.575C39.225 29.9 38.25 27.95 38.625 26.15C39 24.275 40.575 22.925 42.45 22.925C43.65 22.85 45 22.85 46.425 22.85ZM43.2 7.625C42.975 7.625 42.75 7.625 42.525 7.625C30.9 7.625 19.2 7.625 7.575 7.625C6.75 7.625 6.375 7.325 6.375 6.8C6.375 6.275 6.75 5.975 7.575 5.975C19.2 5.975 30.9 5.975 42.525 5.975C42.75 5.975 42.9 5.975 43.2 5.975C43.2 5.225 43.2 4.55 43.2 3.95C43.2 3.05 42.975 2.825 42.075 2.825C31.05 2.825 20.1 2.825 9.075 2.825C8.7 2.825 8.325 2.825 8.025 2.9C6 3.35 4.65 5.225 4.8 7.1C5.025 9.2 6.675 10.775 8.775 10.775C20.1 10.775 31.425 10.775 42.825 10.775C42.975 10.775 43.05 10.775 43.2 10.7C43.2 9.8 43.2 8.75 43.2 7.625ZM11.625 22.025C9.375 22.025 7.125 22.175 4.95 22.775C3.975 23.075 3 23.45 2.1 23.9C1.425 24.275 1.425 24.65 2.1 25.025C2.625 25.325 3.15 25.55 3.675 25.775C5.4 26.375 7.125 26.6 8.925 26.75C12.075 26.975 15.225 26.9 18.375 26.15C19.275 25.925 20.175 25.55 21.075 25.1C21.825 24.725 21.825 24.275 21.075 23.825C20.625 23.525 20.1 23.3 19.575 23.15C16.95 22.25 14.325 22.1 11.625 22.025ZM1.575 26.675C1.575 27.35 1.65 28.025 1.575 28.7C1.5 29.3 1.8 29.75 2.325 29.975C3.45 30.35 4.5 30.875 5.7 31.1C8.85 31.775 12 31.775 15.225 31.475C17.025 31.325 18.75 30.95 20.475 30.275C21.3 29.9 21.825 29.45 21.675 28.4C21.6 27.875 21.675 27.275 21.675 26.75C15.15 29.075 7.875 29.075 1.575 26.675ZM1.575 36.275C1.575 37.025 1.65 37.7 1.575 38.375C1.575 38.975 1.8 39.35 2.25 39.5C3.075 39.875 3.9 40.25 4.8 40.475C9 41.525 13.275 41.45 17.55 40.7C18.75 40.475 19.95 40.175 21 39.5C21.225 39.35 21.6 39.125 21.6 38.825C21.675 38 21.6 37.1 21.6 36.2C18.375 37.7 15 38 11.625 38C8.175 38.075 4.8 37.775 1.575 36.275ZM1.575 41.075C1.575 41.825 1.575 42.5 1.575 43.25C1.575 43.775 1.725 44.15 2.175 44.375C3 44.75 3.75 45.125 4.575 45.35C8.85 46.4 13.2 46.4 17.55 45.575C18.675 45.35 19.8 44.825 20.925 44.45C21.15 44.375 21.525 44.075 21.525 43.85C21.6 43.025 21.525 42.125 21.525 41.225C15.225 43.475 7.875 43.475 1.575 41.075ZM21.6 31.475C18.375 32.975 15 33.275 11.625 33.275C8.25 33.275 4.8 32.975 1.65 31.475C1.65 32.3 1.65 33.05 1.65 33.8C1.65 34.175 1.8 34.475 2.1 34.625C2.7 34.925 3.3 35.225 3.9 35.45C5.85 36.125 7.95 36.35 9.975 36.425C12.825 36.575 15.675 36.425 18.45 35.675C19.35 35.45 20.25 35 21.075 34.625C21.3 34.55 21.6 34.175 21.6 33.95C21.6 33.2 21.6 32.375 21.6 31.475ZM46.35 29.225C46.35 27.575 46.35 26 46.35 24.425C44.925 24.425 43.575 24.425 42.225 24.425C41.025 24.5 40.05 25.55 40.05 26.75C40.05 27.95 40.95 29.075 42.15 29.15C43.5 29.3 44.925 29.225 46.35 29.225Z" fill="#CF51CE"></path>
    <path d="M38.0253 15.6505C36.0753 15.6505 34.1253 15.6505 32.2503 15.6505C31.9503 15.6505 31.6503 15.5005 31.4253 15.3505C31.2753 15.2005 31.2003 14.7505 31.3503 14.6005C31.5003 14.3755 31.8003 14.1505 32.1003 14.1505C32.7003 14.0755 33.3003 14.1505 33.9003 14.1505C37.2003 14.1505 40.4253 14.1505 43.7253 14.1505C43.8753 14.1505 43.9503 14.1505 44.1003 14.1505C44.5503 14.2255 44.9253 14.5255 44.9253 14.9755C44.9253 15.4255 44.5503 15.7255 44.1003 15.7255C42.6753 15.7255 41.3253 15.7255 39.9003 15.7255C39.2253 15.6505 38.6253 15.6505 38.0253 15.6505Z" fill="#CF51CE"></path>
    <path d="M27.9744 15.6512C27.6744 15.6512 27.3744 15.6512 27.1494 15.6512C26.6994 15.6512 26.3994 15.3512 26.3994 14.9012C26.3994 14.4512 26.6994 14.0762 27.1494 14.0762C27.7494 14.0762 28.2744 14.0762 28.8744 14.0762C29.3244 14.0762 29.6244 14.4512 29.6244 14.9012C29.6244 15.3512 29.2494 15.6512 28.7994 15.6512C28.4994 15.6512 28.2744 15.6512 27.9744 15.6512Z" fill="#CF51CE"></path>
    <path d="M42.3738 27.65C41.9238 27.65 41.5488 27.275 41.5488 26.825C41.5488 26.375 41.9238 26 42.3738 26C42.8238 26 43.1238 26.375 43.1238 26.75C43.1988 27.275 42.8238 27.65 42.3738 27.65Z" fill="#CF51CE"></path>
  </symbol>

  <symbol fill="none" xmlns="http://www.w3.org/2000/svg" viewBox="0 0 14 14" id="icon-entrance">
    <path d="M1.03796 9.11277C0.70199 9.24023 0.530118 9.61777 0.689997 9.93958C1.2603 11.0875 2.15479 12.0493 3.26905 12.7016C4.57122 13.4638 6.09508 13.7574 7.58723 13.5334C9.07938 13.3095 10.4499 12.5815 11.4709 11.4706C12.492 10.3596 13.1019 8.93266 13.1994 7.42695C13.297 5.92124 12.8761 4.42751 12.0069 3.19416C11.1377 1.9608 9.87252 1.06214 8.42171 0.647598C6.97091 0.233057 5.42192 0.327618 4.03231 0.915558C2.84323 1.41866 1.83216 2.25708 1.11856 3.32186C0.918507 3.62035 1.04025 4.01691 1.35697 4.18664C1.67369 4.35638 2.06493 4.23431 2.27213 3.94074C2.84024 3.13581 3.62413 2.5012 4.53936 2.11397C5.65526 1.64183 6.89916 1.5659 8.06421 1.89879C9.22926 2.23168 10.2453 2.95334 10.9433 3.94377C11.6413 4.9342 11.9792 6.13371 11.9009 7.34285C11.8226 8.552 11.3328 9.6979 10.5128 10.59C9.69293 11.4822 8.59234 12.0668 7.39409 12.2466C6.19584 12.4264 4.97212 12.1907 3.92643 11.5786C3.0688 11.0765 2.3733 10.3461 1.91376 9.47466C1.74615 9.15681 1.37392 8.9853 1.03796 9.11277Z" fill="white"></path>
    <path d="M0.826172 6.48302C0.540618 6.48302 0.309131 6.71451 0.309131 7.00006C0.309131 7.28561 0.540618 7.5171 0.826172 7.5171L0.826172 6.48302ZM9.45006 7.36566C9.65198 7.16375 9.65198 6.83638 9.45006 6.63446L6.15963 3.34403C5.95772 3.14212 5.63035 3.14212 5.42843 3.34403C5.22651 3.54595 5.22651 3.87332 5.42843 4.07524L8.35325 7.00006L5.42843 9.92488C5.22651 10.1268 5.22651 10.4542 5.42843 10.6561C5.63035 10.858 5.95772 10.858 6.15963 10.6561L9.45006 7.36566ZM0.826172 7.5171L9.08446 7.5171V6.48302L0.826172 6.48302L0.826172 7.5171Z" fill="white"></path>
  </symbol>

  <symbol xmlns="http://www.w3.org/2000/svg" viewBox="0 0 21 21" id="icon-phone">
    <path d="M13.1004 14.5126L14.4466 13.17C14.6279 12.9915 14.8573 12.8692 15.1069 12.8182C15.3566 12.7671 15.6157 12.7894 15.8528 12.8824L17.4935 13.5356C17.7331 13.6327 17.9386 13.7983 18.0841 14.0116C18.2295 14.2249 18.3084 14.4764 18.3108 14.7343V17.731C18.3094 17.9065 18.2724 18.0799 18.202 18.2407C18.1317 18.4016 18.0294 18.5466 17.9014 18.667C17.7734 18.7873 17.6223 18.8807 17.4572 18.9413C17.292 19.0019 17.1163 19.0285 16.9406 19.0196C5.44416 18.3064 3.12444 8.59707 2.68574 4.88115C2.66537 4.69867 2.68398 4.51396 2.74033 4.33917C2.79669 4.16438 2.88951 4.00346 3.0127 3.86702C3.13589 3.73058 3.28665 3.62169 3.45507 3.54753C3.62348 3.47336 3.80573 3.4356 3.98983 3.43673H6.89248C7.1515 3.4375 7.40437 3.51552 7.61856 3.66078C7.83275 3.80604 7.99847 4.01188 8.09441 4.25184L8.74946 5.88804C8.84576 6.12362 8.87033 6.38228 8.8201 6.63171C8.76986 6.88114 8.64705 7.11028 8.467 7.2905L7.12085 8.63303C7.12085 8.63303 7.89609 13.8653 13.1004 14.5126Z"></path>
  </symbol>

</svg>